<svg width="180" height="15" viewBox="0 0 180 15" fill="none" xmlns="http://www.w3.org/2000/svg">
<g clip-path="url(#clip0_1_142)">
<path opacity="0.07" d="M22.1053 0.5H1.89474C0.821053 0.5 0 1.25833 0 2.25V12.75C0 13.7417 0.88421 14.5 1.89474 14.5H22.1053C23.1789 14.5 24 13.7417 24 12.75V2.25C24 1.25833 23.1158 0.5 22.1053 0.5Z" fill="black"/>
<path d="M22.1055 1.08331C22.8003 1.08331 23.3687 1.60831 23.3687 2.24998V12.75C23.3687 13.3916 22.8003 13.9166 22.1055 13.9166H1.89499C1.20026 13.9166 0.631836 13.3916 0.631836 12.75V2.24998C0.631836 1.60831 1.20026 1.08331 1.89499 1.08331H22.1055Z" fill="white"/>
<path d="M17.874 6.39169H17.6845C17.4319 6.97502 17.2424 7.26669 17.0529 8.14169H18.2529C18.0635 7.26669 18.0635 6.85835 17.874 6.39169ZM19.7056 9.83335H18.6319C18.5687 9.83335 18.5687 9.83335 18.5056 9.77502L18.3793 9.25002L18.3161 9.13335H16.8003C16.7372 9.13335 16.674 9.13335 16.674 9.25002L16.4845 9.77502C16.4845 9.83335 16.4214 9.83335 16.4214 9.83335H15.095L15.2214 9.54169L17.0529 5.57502C17.0529 5.28335 17.2424 5.16669 17.5582 5.16669H18.5056C18.5687 5.16669 18.6319 5.16669 18.6319 5.28335L19.5161 9.07502C19.5793 9.30835 19.6424 9.48335 19.6424 9.71669C19.7056 9.77502 19.7056 9.77502 19.7056 9.83335ZM11.2424 9.65835L11.495 8.60835C11.5582 8.60835 11.6214 8.66669 11.6214 8.66669C12.0635 8.84169 12.5056 8.95835 12.9477 8.90002C13.074 8.90002 13.2635 8.84169 13.3898 8.78335C13.7056 8.66669 13.7056 8.37502 13.4529 8.14169C13.3266 8.02502 13.1371 7.96669 12.9477 7.85002C12.695 7.73335 12.4424 7.61669 12.2529 7.44169C11.495 6.85835 11.7477 6.04169 12.1898 5.63335C12.5687 5.40002 12.7582 5.16669 13.2635 5.16669C14.0214 5.16669 14.8424 5.16669 15.2214 5.28335H15.2845C15.2214 5.63335 15.1582 5.92502 15.0319 6.27502C14.7161 6.15835 14.4003 6.04169 14.0845 6.04169C13.895 6.04169 13.7056 6.04169 13.5161 6.10002C13.3898 6.10002 13.3266 6.15835 13.2635 6.21669C13.1371 6.33335 13.1371 6.50835 13.2635 6.62502L13.5793 6.85835C13.8319 6.97502 14.0845 7.09169 14.274 7.20835C14.5898 7.38335 14.9056 7.67502 14.9687 8.02502C15.095 8.55002 14.9056 9.01669 14.4003 9.36669C14.0845 9.60002 13.9582 9.71669 13.5161 9.71669C12.6319 9.71669 11.9372 9.77502 11.3687 9.60002C11.3056 9.71669 11.3056 9.71669 11.2424 9.65835ZM9.03189 9.83335C9.09505 9.42502 9.09505 9.42502 9.1582 9.25002C9.47399 7.96669 9.78978 6.62502 10.0424 5.34169C10.1056 5.22502 10.1056 5.16669 10.2319 5.16669H11.3687C11.2424 5.86669 11.1161 6.39169 10.9266 7.03335C10.7371 7.90835 10.5477 8.78335 10.295 9.65835C10.295 9.77502 10.2319 9.77502 10.1056 9.77502M3.1582 5.28335C3.1582 5.22502 3.28452 5.16669 3.34768 5.16669H5.49504C5.81083 5.16669 6.06347 5.34169 6.12662 5.63335L6.69505 8.20002C6.69505 8.25835 6.69504 8.25835 6.7582 8.31669C6.7582 8.25835 6.82136 8.25835 6.82136 8.25835L8.14768 5.28335C8.08452 5.22502 8.14768 5.16669 8.21083 5.16669H9.53715C9.53715 5.22502 9.53715 5.22502 9.47399 5.28335L7.5161 9.54169C7.45294 9.65835 7.45294 9.71669 7.38978 9.77502C7.32662 9.83335 7.20031 9.77502 7.07399 9.77502H6.12662C6.06347 9.77502 6.00031 9.77502 6.00031 9.65835L4.98978 6.04169C4.86347 5.92502 4.67399 5.75002 4.42136 5.69169C4.04241 5.51669 3.34768 5.40002 3.22136 5.40002L3.1582 5.28335Z" fill="#142688"/>
</g>
<g clip-path="url(#clip1_1_142)">
<path opacity="0.07" d="M48.1053 0.5H27.8947C26.8211 0.5 26 1.25833 26 2.25V12.75C26 13.7417 26.8842 14.5 27.8947 14.5H48.1053C49.1789 14.5 50 13.7417 50 12.75V2.25C50 1.25833 49.1158 0.5 48.1053 0.5Z" fill="black"/>
<path d="M48.1055 1.08331C48.8003 1.08331 49.3687 1.60831 49.3687 2.24998V12.75C49.3687 13.3916 48.8003 13.9166 48.1055 13.9166H27.895C27.2003 13.9166 26.6318 13.3916 26.6318 12.75V2.24998C26.6318 1.60831 27.2003 1.08331 27.895 1.08331H48.1055Z" fill="#5A31F4"/>
<path d="M39.5037 6.16601C39.5037 7.13901 38.7603 7.83317 37.722 7.83317H36.7437C36.7276 7.8334 36.7118 7.83792 36.6984 7.8462C36.6849 7.85447 36.6744 7.86616 36.6679 7.87984C36.6638 7.88889 36.6616 7.8986 36.6616 7.90842V9.18709C36.6616 9.19702 36.6595 9.20686 36.6553 9.21602C36.6512 9.22519 36.6452 9.23351 36.6375 9.24051C36.6299 9.2475 36.6208 9.25304 36.6109 9.25678C36.6009 9.26053 36.5903 9.26242 36.5795 9.26234H35.8949C35.8731 9.26234 35.8522 9.25435 35.8368 9.24013C35.8214 9.22591 35.8128 9.20662 35.8128 9.18651V4.57526C35.8125 4.56023 35.8172 4.54549 35.8262 4.53299C35.8353 4.52049 35.8482 4.51082 35.8633 4.50526C35.8733 4.50139 35.884 4.49941 35.8949 4.49942H37.7265C38.7603 4.49942 39.5037 5.19359 39.5037 6.16659V6.16601ZM38.6498 6.16601C38.6498 5.60718 38.2342 5.19884 37.6709 5.19884H36.7437C36.7329 5.19884 36.7223 5.2008 36.7123 5.20461C36.7023 5.20842 36.6933 5.21401 36.6857 5.22105C36.678 5.22809 36.672 5.23645 36.6679 5.24565C36.6637 5.25486 36.6616 5.26472 36.6616 5.27468V7.05384C36.6615 7.06382 36.6636 7.07371 36.6677 7.08294C36.6718 7.09216 36.6779 7.10052 36.6856 7.10751C36.6932 7.11457 36.7023 7.12017 36.7123 7.12398C36.7222 7.12778 36.7329 7.12972 36.7437 7.12967H37.6709C38.2342 7.13259 38.6498 6.72426 38.6498 6.16601ZM39.7071 8.37742C39.6999 8.22798 39.7335 8.07926 39.8049 7.945C39.8764 7.81073 39.9832 7.69524 40.1157 7.60917C40.3829 7.42484 40.8003 7.32917 41.4136 7.30934L42.066 7.28834V7.11159C42.066 6.75751 41.8071 6.60817 41.3915 6.60817C40.9759 6.60817 40.7126 6.74292 40.6526 6.96401C40.6474 6.97954 40.6369 6.99309 40.6227 7.00257C40.6084 7.01206 40.5912 7.01695 40.5736 7.01651H39.9281C39.9104 7.01672 39.893 7.0116 39.8787 7.00193C39.8643 6.99225 39.8537 6.97854 39.8486 6.96284C39.8451 6.95245 39.8443 6.94149 39.846 6.93076C39.942 6.40692 40.417 6.00909 41.4212 6.00909C42.4898 6.00909 42.8757 6.46584 42.8757 7.33676V9.18709C42.8756 9.1971 42.8734 9.20699 42.8692 9.2162C42.8649 9.22541 42.8587 9.23376 42.851 9.24075C42.8432 9.24775 42.8341 9.25326 42.824 9.25696C42.8139 9.26067 42.8032 9.2625 42.7923 9.26234H42.1418C42.12 9.26234 42.0992 9.25435 42.0838 9.24013C42.0684 9.22591 42.0597 9.20662 42.0597 9.18651V9.04884C42.0599 9.03742 42.0563 9.02621 42.0495 9.01673C42.0426 9.00724 42.0327 8.99992 42.0212 8.99576C42.0098 8.99161 41.9973 8.99062 41.9853 8.9929C41.9733 8.99518 41.9623 9.00063 41.9536 9.00859C41.7578 9.20343 41.4433 9.34401 40.9387 9.34401C40.1966 9.34401 39.7071 8.98992 39.7071 8.37742ZM42.066 7.97668V7.83317L41.2203 7.87401C40.7751 7.89501 40.5161 8.06417 40.5161 8.35001C40.5161 8.60901 40.7536 8.75251 41.1692 8.75251C41.7332 8.75251 42.066 8.47251 42.066 7.97668ZM43.5288 10.66V10.1239C43.5289 10.1127 43.5318 10.1016 43.5371 10.0915C43.5425 10.0815 43.5502 10.0726 43.5597 10.0656C43.5692 10.0585 43.5802 10.0535 43.5919 10.0508C43.6037 10.048 43.616 10.0477 43.6279 10.0498C43.7277 10.0668 43.8288 10.0755 43.9305 10.0755C44.1046 10.0843 44.2769 10.0387 44.4196 9.94599C44.5622 9.85328 44.6669 9.7189 44.7168 9.56451L44.7591 9.44143C44.7654 9.42481 44.7654 9.40671 44.7591 9.39009L43.4043 6.19868C43.3965 6.18116 43.396 6.16156 43.403 6.14375C43.4101 6.12593 43.424 6.11119 43.4422 6.10242C43.4543 6.09655 43.4678 6.09354 43.4814 6.09367H44.1382C44.1551 6.09372 44.1715 6.09848 44.1854 6.10733C44.1993 6.11618 44.2099 6.12871 44.2159 6.14326L45.1355 8.39434C45.1412 8.40945 45.1519 8.42254 45.166 8.43175C45.1802 8.44096 45.1971 8.44583 45.2145 8.44568C45.2317 8.44566 45.2486 8.44072 45.2627 8.43153C45.2768 8.42234 45.2876 8.40936 45.2934 8.39434L46.0923 6.14968C46.0978 6.1342 46.1084 6.12074 46.1227 6.11129C46.1371 6.10183 46.1543 6.09689 46.1719 6.09718H46.8515C46.8719 6.09729 46.8916 6.10419 46.9069 6.11662C46.9222 6.12906 46.9321 6.14618 46.9349 6.16484C46.9364 6.17729 46.9347 6.18989 46.9298 6.20159L45.4803 9.74593C45.1469 10.5702 44.5753 10.7802 43.9456 10.7802C43.8261 10.7832 43.7068 10.7703 43.5913 10.7417C43.5719 10.7373 43.5549 10.7266 43.5433 10.7117C43.5317 10.6967 43.5264 10.6783 43.5281 10.66H43.5288ZM31.4119 4.23342C30.5501 4.22748 29.7183 4.52516 29.0858 5.06584C29.0589 5.08845 29.0421 5.11953 29.0387 5.15298C29.0353 5.18643 29.0456 5.21985 29.0675 5.24667L29.4578 5.73609C29.4705 5.75259 29.4869 5.76632 29.5059 5.7763C29.525 5.78627 29.5462 5.79225 29.568 5.79381C29.5898 5.79537 29.6117 5.79247 29.6322 5.78532C29.6527 5.77817 29.6712 5.76693 29.6865 5.75242C29.9138 5.54394 30.1837 5.37932 30.4806 5.26815C30.7775 5.15699 31.0954 5.1015 31.4157 5.10492C32.7547 5.10492 33.4538 6.02892 33.4538 6.94242C33.4538 7.93409 32.7193 8.63293 31.6633 8.64634C30.8473 8.64634 30.2321 8.15051 30.2321 7.49484C30.2328 7.32905 30.2736 7.16549 30.3515 7.01612C30.4295 6.86675 30.5425 6.73535 30.6825 6.63151C30.7122 6.60893 30.7312 6.57639 30.7351 6.54098C30.739 6.50557 30.7276 6.47017 30.7033 6.44251L30.2928 5.96709C30.2804 5.95247 30.2649 5.94032 30.2473 5.93137C30.2297 5.92242 30.2103 5.91685 30.1903 5.915C30.1703 5.91314 30.1501 5.91505 30.1309 5.92059C30.1117 5.92613 30.094 5.93521 30.0787 5.94726C29.8272 6.13354 29.624 6.3693 29.4837 6.63734C29.344 6.90479 29.2712 7.19787 29.2709 7.49484C29.2709 8.62359 30.3161 9.50851 31.6551 9.51551H31.674C33.2637 9.49684 34.4132 8.41651 34.4132 6.94009C34.4132 5.62934 33.3603 4.23342 31.4119 4.23342Z" fill="white"/>
</g>
<g clip-path="url(#clip2_1_142)">
<path opacity="0.07" d="M74.1053 0.5H53.8947C52.8211 0.5 52 1.25833 52 2.25V12.75C52 13.7417 52.8842 14.5 53.8947 14.5H74.1053C75.1789 14.5 76 13.7417 76 12.75V2.25C76 1.25833 75.1158 0.5 74.1053 0.5Z" fill="black"/>
<path d="M74.1055 1.08331C74.8003 1.08331 75.3687 1.60831 75.3687 2.24998V12.75C75.3687 13.3916 74.8003 13.9166 74.1055 13.9166H53.895C53.2003 13.9166 52.6318 13.3916 52.6318 12.75V2.24998C52.6318 1.60831 53.2003 1.08331 53.895 1.08331H74.1055Z" fill="white"/>
<path d="M67.0944 5.34169C67.2207 4.75835 67.0944 4.35002 66.7155 4.00002C66.3365 3.59169 65.6418 3.41669 64.7576 3.41669H62.1681C61.9786 3.41669 61.8523 3.53335 61.7892 3.70835L60.8418 9.60002C60.8418 9.71669 60.905 9.83335 61.0313 9.83335H62.7365L62.9892 7.85002L64.126 6.56669L67.0944 5.34169Z" fill="#003087"/>
<path d="M67.0949 5.34167L66.9686 5.45834C66.6528 7.09167 65.5791 7.67501 64.0633 7.67501H63.3686C63.1791 7.67501 63.0528 7.79167 62.9896 7.96667L62.6107 10.2417L62.4844 10.825C62.4844 10.9417 62.5475 11.0583 62.6738 11.0583H64.0002C64.1896 11.0583 64.316 10.9417 64.316 10.825V10.7667L64.5686 9.36667V9.30834C64.5686 9.19167 64.7581 9.07501 64.8844 9.07501H65.0738C66.4002 9.07501 67.4107 8.60834 67.6633 7.20834C67.7896 6.62501 67.7265 6.15834 67.4107 5.80834C67.3475 5.51667 67.2212 5.40001 67.0949 5.34167Z" fill="#3086C8"/>
<path d="M66.7156 5.22499C66.6524 5.16665 66.5893 5.16665 66.5261 5.16665C66.4629 5.16665 66.3998 5.16665 66.3366 5.10832C66.1472 5.04999 65.8945 5.04999 65.6419 5.04999H63.7472C63.684 5.04999 63.6208 5.04999 63.6208 5.10832C63.4945 5.16665 63.4314 5.22499 63.4314 5.34165L62.9893 7.90832V7.96665C62.9893 7.79165 63.1787 7.67499 63.3682 7.67499H64.1893C65.7682 7.67499 66.7787 7.09165 67.0945 5.45832V5.34165C67.0314 5.28332 66.905 5.22499 66.7787 5.22499H66.7156Z" fill="#012169"/>
</g>
<g clip-path="url(#clip3_1_142)">
<path opacity="0.07" d="M100.105 0.5H79.8947C78.8211 0.5 78 1.25833 78 2.25V12.75C78 13.7417 78.8842 14.5 79.8947 14.5H100.105C101.179 14.5 102 13.7417 102 12.75V2.25C102 1.25833 101.116 0.5 100.105 0.5Z" fill="black"/>
<path d="M100.106 1.08331C100.8 1.08331 101.369 1.60831 101.369 2.24998V12.75C101.369 13.3916 100.8 13.9166 100.106 13.9166H79.895C79.2003 13.9166 78.6318 13.3916 78.6318 12.75V2.24998C78.6318 1.60831 79.2003 1.08331 79.895 1.08331H100.106Z" fill="white"/>
<path d="M87.4737 11.5834C89.9153 11.5834 91.8947 9.75518 91.8947 7.50002C91.8947 5.24486 89.9153 3.41669 87.4737 3.41669C85.032 3.41669 83.0526 5.24486 83.0526 7.50002C83.0526 9.75518 85.032 11.5834 87.4737 11.5834Z" fill="#EB001B"/>
<path d="M92.5265 11.5834C94.9682 11.5834 96.9476 9.75518 96.9476 7.50002C96.9476 5.24486 94.9682 3.41669 92.5265 3.41669C90.0848 3.41669 88.1055 5.24486 88.1055 7.50002C88.1055 9.75518 90.0848 11.5834 92.5265 11.5834Z" fill="#FFC000"/>
<path d="M91.8949 7.49999C91.8949 6.09999 91.137 4.87499 90.0002 4.17499C88.8634 4.93332 88.1055 6.15832 88.1055 7.49999C88.1055 8.84165 88.8634 10.125 90.0002 10.825C91.137 10.125 91.8949 8.89999 91.8949 7.49999Z" fill="#FF5F00"/>
</g>
<g clip-path="url(#clip4_1_142)">
<path opacity="0.07" d="M126.105 0.5H105.895C104.821 0.5 104 1.25833 104 2.25V12.75C104 13.7417 104.884 14.5 105.895 14.5H126.105C127.179 14.5 128 13.7417 128 12.75V2.25C128 1.25833 127.116 0.5 126.105 0.5Z" fill="black"/>
<path d="M126.106 1.08331C126.8 1.08331 127.369 1.60831 127.369 2.24998V12.75C127.369 13.3916 126.8 13.9166 126.106 13.9166H105.895C105.2 13.9166 104.632 13.3916 104.632 12.75V2.24998C104.632 1.60831 105.2 1.08331 105.895 1.08331H126.106Z" fill="white"/>
<path d="M115.427 7.48607V9.35274H114.784V4.74441H116.484C116.687 4.74122 116.89 4.77525 117.079 4.84452C117.268 4.9138 117.441 5.01696 117.587 5.14807C117.725 5.2673 117.837 5.41055 117.915 5.56961C117.994 5.72868 118.037 5.90045 118.044 6.07511C118.05 6.24977 118.019 6.42389 117.953 6.58752C117.887 6.75115 117.786 6.90108 117.657 7.02874L117.587 7.09641C117.29 7.35716 116.894 7.49891 116.484 7.48957L115.427 7.48607ZM115.427 5.30907V6.93541H116.5C116.738 6.94241 116.968 6.85666 117.134 6.69974C117.254 6.58492 117.334 6.44025 117.365 6.28373C117.396 6.1272 117.376 5.96573 117.308 5.81939C117.241 5.67305 117.128 5.54832 116.984 5.46069C116.84 5.37307 116.672 5.32643 116.5 5.32657L115.427 5.30907ZM119.522 6.09541C119.933 6.07791 120.334 6.20507 120.645 6.45299C120.926 6.70382 121.076 7.05382 121.056 7.41491V9.35974H120.444V8.91291H120.413C120.303 9.0805 120.148 9.21875 119.963 9.31399C119.777 9.40924 119.568 9.45818 119.356 9.45599C119.01 9.46634 118.672 9.35526 118.411 9.14507C118.288 9.05187 118.188 8.93391 118.121 8.80011C118.054 8.6663 118.021 8.52016 118.024 8.37274C118.017 8.22375 118.048 8.07531 118.116 7.93976C118.183 7.80421 118.284 7.68547 118.411 7.59341C118.723 7.38642 119.1 7.28076 119.484 7.29299C119.81 7.28132 120.134 7.34724 120.425 7.48607V7.36474C120.427 7.26442 120.404 7.16497 120.359 7.07391C120.313 6.98286 120.246 6.90258 120.161 6.83916C119.992 6.6972 119.771 6.6204 119.542 6.62449C119.377 6.62304 119.213 6.66069 119.067 6.73388C118.922 6.80706 118.798 6.91336 118.709 7.04274L118.144 6.71374C118.298 6.51062 118.505 6.34717 118.746 6.23894C118.987 6.1307 119.255 6.08129 119.522 6.09541ZM118.709 8.38674C118.708 8.46229 118.727 8.53703 118.764 8.60437C118.801 8.67171 118.855 8.72959 118.922 8.77291C119.063 8.87557 119.238 8.92982 119.418 8.92632C119.689 8.92574 119.949 8.82716 120.142 8.65099C120.334 8.48416 120.444 8.25141 120.444 8.00757C120.201 7.84792 119.905 7.77084 119.608 7.78941C119.376 7.781 119.148 7.8411 118.957 7.96091C118.881 8.00776 118.819 8.07109 118.776 8.14534C118.733 8.21958 118.71 8.30247 118.709 8.38674ZM124.574 6.19924L122.433 10.7434H121.771L122.58 9.15207L121.176 6.19924H121.872L122.89 8.46549L123.881 6.19924H124.574Z" fill="#5F6368"/>
<path d="M112.834 7.08238C112.834 6.90272 112.819 6.72305 112.788 6.54572H110.078V7.5648H111.626C111.595 7.72676 111.528 7.88117 111.43 8.0188C111.333 8.15642 111.206 8.27441 111.058 8.36572V9.02722H111.982C112.263 8.77597 112.484 8.47309 112.631 8.13812C112.778 7.80314 112.847 7.4435 112.834 7.08238Z" fill="#4285F4"/>
<path d="M110.081 9.67043C110.779 9.68814 111.459 9.45932 111.982 9.03051L111.056 8.36551C110.833 8.49726 110.581 8.58041 110.319 8.60865C110.056 8.63689 109.79 8.60948 109.541 8.52849C109.292 8.4475 109.066 8.31507 108.88 8.14127C108.695 7.96747 108.554 7.75688 108.47 7.52551H107.521V8.20801C107.759 8.64728 108.124 9.01679 108.576 9.2751C109.028 9.53341 109.549 9.6703 110.081 9.67043Z" fill="#34A853"/>
<path d="M108.471 7.52936C108.351 7.20112 108.351 6.84552 108.471 6.51728V5.83478H107.522C107.32 6.20313 107.215 6.61032 107.215 7.02332C107.215 7.43632 107.32 7.84351 107.522 8.21186L108.471 7.52936Z" fill="#FFC000"/>
<path d="M110.081 5.42359C110.489 5.41669 110.884 5.55927 111.18 5.82025L112.001 5.066C111.477 4.61218 110.783 4.36464 110.065 4.37592C109.536 4.37837 109.019 4.51592 108.57 4.77333C108.121 5.03074 107.758 5.39795 107.521 5.83425L108.47 6.51734C108.581 6.20238 108.796 5.92747 109.085 5.73128C109.374 5.53508 109.722 5.42747 110.081 5.42359Z" fill="#EA4335"/>
</g>
<g clip-path="url(#clip5_1_142)">
<path d="M151.718 0.5H132.282C132.201 0.5 132.119 0.5 132.039 0.500396C131.97 0.500925 131.902 0.501585 131.834 0.503303C131.685 0.507002 131.536 0.515194 131.389 0.539504C131.242 0.562795 131.099 0.60621 130.966 0.66832C130.698 0.79424 130.48 0.995468 130.343 1.24304C130.276 1.36623 130.229 1.49805 130.204 1.63411C130.177 1.7698 130.169 1.90813 130.165 2.04526C130.163 2.10823 130.162 2.17121 130.161 2.2342C130.161 2.30871 130.161 2.38349 130.161 2.4584V12.5415C130.161 12.6164 130.161 12.691 130.161 12.7659C130.162 12.8288 130.163 12.8918 130.165 12.9549C130.169 13.0917 130.177 13.2302 130.204 13.3658C130.229 13.5018 130.276 13.6336 130.343 13.7568C130.411 13.8799 130.499 13.9922 130.605 14.0898C130.711 14.1875 130.832 14.2691 130.965 14.3315C131.101 14.3954 131.24 14.4359 131.389 14.4606C131.536 14.4848 131.685 14.493 131.834 14.4967C131.902 14.4981 131.97 14.4989 132.039 14.4993C132.119 14.4999 132.201 14.4999 132.282 14.4999H151.718C151.799 14.4999 151.88 14.4999 151.961 14.4993C152.029 14.4991 152.097 14.4981 152.165 14.4967C152.314 14.493 152.464 14.4848 152.611 14.4606C152.758 14.4373 152.901 14.3938 153.034 14.3315C153.302 14.2055 153.52 14.0043 153.656 13.7568C153.725 13.6317 153.769 13.5036 153.795 13.3658C153.822 13.2302 153.831 13.0917 153.835 12.9549C153.836 12.8918 153.837 12.8288 153.838 12.7659C153.838 12.691 153.838 12.6164 153.838 12.5415V2.45853C153.838 2.38362 153.838 2.30884 153.838 2.23406C153.837 2.17112 153.836 2.10818 153.835 2.04526C153.831 1.90813 153.822 1.7698 153.795 1.63411C153.77 1.49803 153.723 1.36619 153.656 1.24304C153.52 0.995512 153.302 0.794299 153.034 0.66832C152.9 0.606274 152.758 0.562904 152.611 0.539636C152.464 0.515194 152.314 0.507134 152.165 0.503435C152.097 0.501835 152.029 0.500866 151.961 0.500528C151.88 0.5 151.799 0.5 151.718 0.5Z" fill="#E4E4E4"/>
<path d="M151.718 0.966675L151.957 0.967071C152.021 0.967468 152.086 0.968128 152.151 0.969714C152.265 0.97262 152.397 0.978301 152.521 0.99878C152.628 1.01662 152.718 1.0437 152.805 1.08439C152.977 1.16559 153.118 1.29547 153.206 1.45525C153.249 1.53452 153.279 1.61723 153.298 1.71724C153.32 1.83007 153.326 1.95281 153.329 2.05811C153.331 2.11756 153.332 2.17702 153.332 2.23779C153.333 2.31138 153.333 2.38484 153.333 2.45856V12.5416C153.333 12.6154 153.333 12.6888 153.332 12.7639C153.332 12.8233 153.331 12.8828 153.329 12.9422C153.326 13.0474 153.32 13.1701 153.298 13.2843C153.281 13.3751 153.25 13.4631 153.205 13.5452C153.117 13.705 152.977 13.8349 152.804 13.9161C152.718 13.9565 152.628 13.9836 152.522 14.0013C152.396 14.022 152.258 14.0277 152.154 14.0303C152.088 14.0317 152.023 14.0326 151.956 14.0329C151.877 14.0334 151.797 14.0334 151.718 14.0334H132.278C132.199 14.0334 132.121 14.0334 132.041 14.0329C131.976 14.0326 131.912 14.0318 131.847 14.0305C131.741 14.0278 131.603 14.022 131.478 14.0014C131.379 13.9862 131.283 13.9572 131.194 13.9155C131.108 13.8753 131.03 13.8226 130.962 13.7596C130.894 13.6968 130.837 13.6245 130.793 13.5452C130.748 13.4626 130.717 13.3742 130.701 13.2829C130.678 13.1689 130.672 13.0467 130.669 12.9423C130.668 12.8827 130.667 12.823 130.666 12.7633L130.666 12.588V2.41232L130.666 2.23726C130.667 2.1775 130.668 2.11773 130.669 2.05798C130.672 1.95334 130.678 1.83113 130.701 1.71619C130.717 1.62514 130.748 1.5369 130.793 1.45446C130.837 1.37518 130.894 1.30281 130.962 1.24003C131.03 1.17708 131.109 1.12446 131.194 1.08413C131.284 1.04272 131.379 1.01395 131.478 0.99878C131.601 0.978301 131.734 0.97262 131.848 0.969714C131.912 0.968241 131.977 0.96736 132.041 0.967071L132.281 0.966675H151.718Z" fill="white"/>
<path d="M136.385 5.22592C136.586 4.99405 136.722 4.68264 136.686 4.3645C136.392 4.37798 136.034 4.54352 135.826 4.77566C135.64 4.97436 135.475 5.29872 135.518 5.60351C135.848 5.62994 136.177 5.45131 136.385 5.22592ZM136.682 5.6631C136.203 5.63668 135.796 5.91413 135.567 5.91413C135.339 5.91413 134.988 5.67631 134.609 5.68279C134.116 5.68939 133.659 5.94702 133.408 6.35659C132.894 7.17573 133.273 8.39123 133.773 9.05843C134.016 9.38873 134.309 9.75205 134.695 9.73897C135.06 9.72576 135.203 9.52098 135.646 9.52098C136.089 9.52098 136.218 9.73897 136.604 9.73237C137.004 9.72576 137.254 9.40207 137.497 9.07177C137.776 8.69523 137.89 8.33191 137.898 8.31209C137.89 8.30548 137.126 8.03451 137.118 7.22197C137.111 6.54156 137.719 6.21787 137.748 6.19792C137.404 5.72916 136.868 5.67631 136.682 5.6631" fill="black"/>
<path d="M141.458 4.74237C142.499 4.74237 143.224 5.40521 143.224 6.37021C143.224 7.33864 142.484 8.00492 141.432 8.00492H140.279V9.69816H139.446V4.74237H141.458ZM140.279 7.35925H141.235C141.96 7.35925 142.372 6.9987 142.372 6.37365C142.372 5.74872 141.96 5.39147 141.238 5.39147H140.279V7.35925ZM143.431 8.6712C143.431 8.03584 143.955 7.67185 144.922 7.61689L145.959 7.55849V7.28368C145.959 6.88204 145.673 6.66219 145.163 6.66219C144.743 6.66219 144.438 6.8613 144.375 7.16689H143.624C143.646 6.52479 144.301 6.05775 145.186 6.05775C146.137 6.05775 146.758 6.51792 146.758 7.23229V9.69803H145.989V9.10389H145.97C145.751 9.49192 145.267 9.73568 144.743 9.73568C143.97 9.73568 143.431 9.30999 143.431 8.6712ZM145.959 8.35186V8.07362L145.033 8.12858C144.512 8.1595 144.241 8.33799 144.241 8.65045C144.241 8.95274 144.524 9.14854 144.966 9.14854C145.531 9.14854 145.959 8.81534 145.959 8.35186ZM147.466 11.0236V10.4296C147.518 10.4363 147.644 10.4432 147.711 10.4432C148.079 10.4432 148.288 10.2992 148.414 9.92804L148.489 9.70833L147.079 6.1024H147.949L148.931 9.02831H148.95L149.931 6.1024H150.779L149.318 9.89026C148.983 10.7592 148.6 11.0443 147.789 11.0443C147.726 11.0443 147.522 11.0374 147.466 11.0236Z" fill="black"/>
</g>
<g clip-path="url(#clip6_1_142)">
<path opacity="0.07" d="M178.105 0.5H157.895C156.821 0.5 156 1.25833 156 2.25V12.75C156 13.7417 156.884 14.5 157.895 14.5H178.105C179.179 14.5 180 13.7417 180 12.75V2.25C180 1.25833 179.116 0.5 178.105 0.5Z" fill="black"/>
<path d="M178.106 1.08331C178.8 1.08331 179.369 1.60831 179.369 2.24998V12.75C179.369 13.3916 178.8 13.9166 178.106 13.9166H157.895C157.2 13.9166 156.632 13.3916 156.632 12.75V2.24998C156.632 1.60831 157.2 1.08331 157.895 1.08331H178.106Z" fill="#006FCF"/>
<path d="M161.666 6.48969L162.155 7.58402H161.181L161.666 6.48969ZM171.819 6.53519H169.938V7.0176H171.788V7.74035H169.942V8.27819H171.822V8.70927L173.134 7.39969L171.822 6.03469L171.819 6.53519ZM162.937 5.17019H165.46L166.02 6.29894L166.539 5.16669H173.089L173.77 5.86085L174.474 5.16669H177.482L175.259 7.41369L177.459 9.64669H174.406L173.725 8.95252L173.015 9.64669H162.335L162.023 8.95252H161.309L160.996 9.64669H158.526L160.602 5.16669H162.768L162.937 5.17019ZM168.408 5.79902H166.994L166.047 7.86169L165.02 5.79902H163.617V8.60485L162.316 5.79902H161.057L159.553 9.01435H160.535L160.847 8.32019H162.486L162.798 9.01435H164.516V6.71894L165.622 9.01785H166.374L167.473 6.72594V9.01844H168.394L168.409 5.79844L168.408 5.79902ZM174.307 7.41369L175.906 5.79902H174.755L173.744 6.80585L172.766 5.79902H169.043V9.01785H172.713L173.732 8.00402L174.71 9.01785H175.894L174.308 7.41369H174.307Z" fill="white"/>
</g>
<defs>
<clipPath id="clip0_1_142">
<rect width="24" height="14" fill="white" transform="translate(0 0.5)"/>
</clipPath>
<clipPath id="clip1_1_142">
<rect width="24" height="14" fill="white" transform="translate(26 0.5)"/>
</clipPath>
<clipPath id="clip2_1_142">
<rect width="24" height="14" fill="white" transform="translate(52 0.5)"/>
</clipPath>
<clipPath id="clip3_1_142">
<rect width="24" height="14" fill="white" transform="translate(78 0.5)"/>
</clipPath>
<clipPath id="clip4_1_142">
<rect width="24" height="14" fill="white" transform="translate(104 0.5)"/>
</clipPath>
<clipPath id="clip5_1_142">
<rect width="24" height="14" fill="white" transform="translate(130 0.5)"/>
</clipPath>
<clipPath id="clip6_1_142">
<rect width="24" height="14" fill="white" transform="translate(156 0.5)"/>
</clipPath>
</defs>
</svg>
